<svg xmlns="http://www.w3.org/2000/svg" width="32" height="32" viewBox="0 0 32 32"><path fill="#FFFFFF" d="M30.823 16.333c1.127-1.143 1.489-2.971.893-4.448-.475-1.177-1.321-1.964-2.5-2.4-.181-.067-.216-.165-.222-.335-.014-.476-.018-.954-.075-1.425-.154-1.283-.646-2.44-1.423-3.465-1.248-1.645-2.898-2.636-4.947-2.949a7.378 7.378 0 00-3.392.251.744.744 0 01-.668-.078C17.136.692 15.67.303 14.297.294c-1.536.004-2.814.296-4.009.905-1.886.96-3.249 2.419-4.067 4.375a.49.49 0 01-.418.328c-1.26.209-2.311.8-3.177 1.739-1.638 1.778-1.965 4.55-.764 6.654.117.204.096.324-.066.49C.731 15.878.117 17.182.016 18.714c-.096 1.438.244 2.761 1.071 3.947.95 1.363 2.254 2.188 3.879 2.513.158.031.223.113.234.276.018.277.043.556.096.828.305 1.561 1.045 2.875 2.272 3.894a6.664 6.664 0 005.679 1.381c.911-.197 1.755-.558 2.491-1.142.128-.101.22-.123.352-.015a4.85 4.85 0 002.474 1.091c1.808.24 3.3-.349 4.489-1.714a4.566 4.566 0 00.918-1.711c.038-.127.072-.263.256-.265 1.311-.02 2.086-.211 2.752-.486 2.515-1.041 4.045-2.9 4.523-5.588.292-1.645.012-3.211-.779-4.684-.243-.452-.263-.339.1-.706zm-6.287 7.146c-.426.132-1.044.22-1.33.214-.898-.009-1.785-.128-2.603-.501-1.087-.496-1.744-1.365-2.009-2.536-.204-.902.067-1.713.443-2.506.701-1.479 1.413-2.952 2.111-4.432.262-.556.792-1.583.249-1.873-.634-.339-1.077.393-1.415 1.051-.832 1.618-1.65 3.244-2.474 4.866-.381.751-.75 1.508-1.154 2.246-.372.681-.934 1.111-1.75 1.064-1.241-.072-1.589-.888-1.11-2.087.606-1.519 1.216-3.037 1.815-4.559.159-.403.335-.809.255-1.265-.07-.396-.287-.652-.63-.72-.287-.057-.73.157-.873.467a31.68 31.68 0 00-.656 1.558c-.904 2.264-1.794 4.534-2.708 6.794-.252.623-.631 1.196-1.296 1.426-1.855.639-4.07-.551-3.876-2.785.06-.698 1.622-5.601 1.723-5.915.461-1.444.905-2.898 1.585-4.26.466-.933 1.273-1.453 2.247-1.749.808-.246 1.55-.059 2.272.319.38.199.776.366 1.159.558.283.142.569.139.816-.035.349-.247.687-.515.998-.808.692-.651 1.754-.76 2.413-.393.368.205.67.529.995.807.319.273.457.306.806.078.659-.431 1.392-.402 2.123-.359 1.913.113 2.516 1.896 2.223 3.187-.295 1.297-.887 2.478-1.4 3.691-.427 1.009-.86 2.016-1.256 3.037-.233.599-.387 1.228-.393 1.88-.007.695.313 1.079 1.001 1.209.794.149 1.24.16 1.743.365.455.185.639.557.631 1.024-.01.458-.238.807-.675.942z"></path></svg>